<?xml version="1.0" encoding="UTF-8" standalone="no"?>
<svg
   xmlns:dc="http://purl.org/dc/elements/1.1/"
   xmlns:cc="http://creativecommons.org/ns#"
   xmlns:rdf="http://www.w3.org/1999/02/22-rdf-syntax-ns#"
   xmlns:svg="http://www.w3.org/2000/svg"
   xmlns="http://www.w3.org/2000/svg"
   id="svg8"
   version="1.1"
   viewBox="0 0 210 297"
   height="297mm"
   width="210mm">
  <defs
     id="defs2" />
  <metadata
     id="metadata5">
    <rdf:RDF>
      <cc:Work
         rdf:about="">
        <dc:format>image/svg+xml</dc:format>
        <dc:type
           rdf:resource="http://purl.org/dc/dcmitype/StillImage" />
        <dc:title></dc:title>
      </cc:Work>
    </rdf:RDF>
  </metadata>
  <g
     id="layer1">
    <g
       transform="translate(4.5357143,-9.071429)"
       id="g3710">
      <path
         id="path3714"
         d="m 52.576485,173.77976 v -7.54062 l 3.505729,0.0123 3.505729,0.0123 -1.256771,0.65421 c -0.691224,0.35981 -1.25677,0.70904 -1.25677,0.77605 0,0.26541 2.189613,1.21956 2.513476,1.09528 0.525512,-0.20166 1.260664,0.46204 1.151053,1.03918 -0.13699,0.7213 -1.445386,0.8545 -1.662862,0.16929 -0.08823,-0.278 -0.767444,-0.83583 -1.509357,-1.23963 l -1.348934,-0.73418 -1.5705,0.75063 -1.570501,0.75063 1.932666,0.98969 c 1.062967,0.54433 1.839975,0.99558 1.726684,1.00278 -0.11329,0.007 -0.92901,-0.35189 -1.81271,-0.79798 -0.883701,-0.44609 -1.656692,-0.76111 -1.717759,-0.70004 -0.06107,0.0611 -0.171873,1.88064 -0.246236,4.04349 l -0.135206,3.93246 1.397489,0.72385 c 0.768618,0.39812 1.486785,0.72947 1.595926,0.73633 0.324757,0.0204 0.227477,-4.71069 -0.107903,-5.24772 -0.58509,-0.93688 0.416058,-2.03187 1.235751,-1.35158 0.501572,0.41627 0.500394,0.91085 -0.0034,1.41461 -0.299135,0.29914 -0.396875,1.03966 -0.396875,3.00689 v 2.61001 l 1.389062,0.70008 1.389063,0.70008 -3.373438,0.0161 -3.373437,0.0161 z m 8.532812,6.86178 1.256771,-0.65421 v -2.75744 c 0,-1.55289 -0.115579,-2.82887 -0.264583,-2.92096 -0.488046,-0.30163 -0.29496,-1.40991 0.27728,-1.59153 1.044177,-0.33141 1.693645,0.77343 0.913345,1.55373 -0.460808,0.46081 -0.586712,5.19718 -0.138154,5.19718 0.142297,0 0.916204,-0.32246 1.719792,-0.71658 l 1.46107,-0.71657 v -4.04593 c 0,-2.22526 -0.06526,-4.04592 -0.14503,-4.04592 -0.07977,0 -1.283908,0.53578 -2.67587,1.19062 -1.391963,0.65485 -2.621808,1.19063 -2.73299,1.19063 -0.502257,0 -0.94125,1.00505 -1.086493,2.48747 l -0.158092,1.61357 -0.03582,-1.85209 -0.03582,-1.85208 3.368909,-1.61086 3.368908,-1.61086 -3.306485,-1.63029 -3.306486,-1.63028 h 35.387215 35.387206 v 7.54062 7.54063 l -3.24114,-0.0116 c -3.10834,-0.0111 -3.19841,-0.0268 -2.19811,-0.38318 1.49228,-0.5316 2.30349,-1.20634 3.05264,-2.53906 0.55708,-0.99105 0.67053,-1.58643 0.75181,-3.94532 0.11735,-3.40568 -0.46547,-5.33261 -1.99401,-6.59256 -2.59146,-2.1361 -7.77567,-1.58629 -9.52453,1.01013 -0.85889,1.27514 -1.18619,2.72399 -1.16037,5.13655 0.0441,4.11726 1.06771,5.92657 3.93122,6.94857 0.8808,0.31436 0.36339,0.35325 -4.69876,0.35325 -5.1491,0 -5.59162,-0.0345 -4.66652,-0.36433 1.60353,-0.57165 2.91126,-2.0001 3.46021,-3.77963 0.17651,-0.57219 0.1212,-0.59531 -1.42398,-0.59531 -1.36636,0 -1.77206,0.11912 -2.70336,0.79375 -1.2732,0.9223 -2.13872,0.99471 -3.31521,0.27736 -0.94752,-0.57774 -1.40235,-1.78328 -1.40235,-3.71694 0,-2.63823 0.78853,-3.91234 2.56912,-4.15117 0.83854,-0.11247 1.17507,-0.0118 1.84467,0.55159 0.71582,0.60232 1.05817,0.68916 2.71688,0.68916 1.84387,0 1.89287,-0.0169 1.72202,-0.59531 -0.90181,-3.05301 -4.46998,-4.59977 -8.14588,-3.53116 -3.10688,0.9032 -4.28731,2.84709 -4.27313,7.03689 0.0142,4.20254 1.39693,6.40807 4.48941,7.16093 0.43656,0.10628 -3.31391,0.19759 -8.334372,0.2029 -8.481761,0.009 -9.026136,-0.0177 -7.687799,-0.37748 0.792178,-0.21294 1.834099,-0.68751 2.315381,-1.0546 1.568921,-1.19668 1.783332,-1.91695 1.883876,-6.32863 0.08684,-3.81009 0.06545,-4.00577 -0.534868,-4.89479 -0.991209,-1.46789 -2.292718,-1.95803 -5.237007,-1.97224 -2.191694,-0.0106 -2.657522,0.0703 -3.637997,0.63188 -0.742251,0.42512 -1.304329,1.01559 -1.653645,1.73719 -0.291055,0.60123 -0.529191,1.17463 -0.529191,1.27421 0,0.0996 0.784892,0.18104 1.744205,0.18104 1.343575,0 1.898727,-0.12154 2.416932,-0.52916 1.090064,-0.85745 3.491608,-0.59453 3.882874,0.4251 0.322328,0.83997 -0.625219,1.3911 -3.148084,1.83106 -3.838213,0.66932 -5.161354,1.84795 -5.159521,4.59598 0.0016,2.27195 1.139037,3.76727 3.246784,4.26805 0.482828,0.11471 -1.501513,0.20097 -4.57069,0.19869 -3.67293,-0.003 -5.010001,-0.0735 -4.14169,-0.21922 2.587856,-0.43426 4.14169,-2.11867 4.14169,-4.48972 0,-2.28823 -1.212096,-3.36478 -4.804434,-4.26715 -2.736589,-0.68741 -3.662232,-1.14518 -3.662232,-1.81111 0,-0.67686 0.769328,-1.06085 2.125411,-1.06085 0.897864,0 1.24793,0.15636 1.890798,0.84456 0.682727,0.73086 1.005189,0.86019 2.395362,0.96075 l 1.606431,0.1162 -0.165635,-1.0207 c -0.454662,-2.80175 -3.80818,-4.35875 -7.663979,-3.55829 -3.148837,0.6537 -4.712212,3.36375 -3.461251,5.99995 0.557316,1.17446 2.087671,2.04469 4.564015,2.59532 2.593799,0.57675 3.527988,1.07091 3.421602,1.80992 -0.251698,1.74845 -4.977338,1.40944 -4.977338,-0.35707 0,-0.49447 -0.144174,-0.52881 -1.918229,-0.45692 l -1.918229,0.0777 0.088,0.79375 c 0.199216,1.79689 1.528825,3.14873 3.660476,3.72166 1.138904,0.30612 0.526976,0.34427 -5.60056,0.3492 l -6.879167,0.006 1.256771,-0.65421 z m 38.56302,-6.24563 c 0,-7.76057 0.03992,-7.6276 -2.289966,-7.6276 h -1.4142 v 6.96736 c 0,3.83205 0.07937,7.04673 0.176389,7.14375 0.09701,0.097 0.93045,0.17639 1.852084,0.17639 h 1.675693 z m -40.195777,6.24097 c 0.01269,-0.30822 0.07539,-0.37092 0.159852,-0.15985 0.07643,0.191 0.06703,0.4192 -0.02089,0.50712 -0.08792,0.0879 -0.150453,-0.0684 -0.138964,-0.34727 z m 27.310802,-2.56213 c -0.681323,-0.30772 -1.02602,-1.53098 -0.6365,-2.2588 0.290708,-0.5432 1.058894,-0.9094 2.888546,-1.377 0.627565,-0.16039 1.312174,-0.35729 1.521354,-0.43756 0.489834,-0.18797 0.522184,1.60383 0.0457,2.53099 -0.682104,1.32726 -2.589675,2.09765 -3.819096,1.54237 z m 34.869248,-0.16332 c -1.44057,-0.39654 -2.17959,-2.43134 -1.87804,-5.17095 0.14292,-1.29838 0.30796,-1.67274 1.01657,-2.30589 2.0621,-1.84249 4.27933,-0.14651 4.27572,3.27053 -0.003,3.18013 -1.30711,4.78634 -3.41425,4.20631 z m -63.523855,-5.71917 c -0.363802,-0.20796 -0.542396,-0.37812 -0.396875,-0.37812 0.145521,0 0.562239,0.17016 0.926042,0.37812 0.363802,0.20797 0.542395,0.37813 0.396874,0.37813 -0.14552,0 -0.562239,-0.17016 -0.926041,-0.37813 z"
         style="fill:#eeeeee;stroke-width:0.26458332" />
      <path
         id="path3712"
         d="m 57.934297,180.58811 -1.389062,-0.70008 v -2.61001 c 0,-1.96723 0.09774,-2.70775 0.396875,-3.00689 0.503763,-0.50376 0.504941,-0.99834 0.0034,-1.41461 -0.819692,-0.68029 -1.82084,0.4147 -1.23575,1.35158 0.33538,0.53703 0.43266,5.26815 0.107903,5.24772 -0.109141,-0.007 -0.827308,-0.33821 -1.595926,-0.73633 l -1.397489,-0.72385 0.135206,-3.93246 c 0.07436,-2.16285 0.185169,-3.98242 0.246236,-4.04349 0.06107,-0.0611 0.834058,0.25395 1.717759,0.70004 0.8837,0.44609 1.69942,0.80518 1.81271,0.79798 0.113291,-0.007 -0.663717,-0.45845 -1.726684,-1.00278 l -1.932666,-0.98969 1.570501,-0.75063 1.5705,-0.75063 1.348934,0.73418 c 0.741913,0.4038 1.421124,0.96163 1.509357,1.23963 0.217476,0.68521 1.525872,0.55201 1.662862,-0.16929 0.109611,-0.57714 -0.625541,-1.24084 -1.151053,-1.03918 -0.324307,0.12445 -2.513476,-0.83004 -2.513476,-1.09589 0,-0.0674 0.578846,-0.41578 1.286326,-0.77429 l 1.286326,-0.65183 3.277736,1.6162 3.277736,1.6162 -3.368908,1.61086 -3.368909,1.61086 0.03582,1.85208 0.03582,1.85209 0.158092,-1.61357 c 0.145243,-1.48242 0.584236,-2.48747 1.086493,-2.48747 0.111182,0 1.341027,-0.53578 2.73299,-1.19063 1.391962,-0.65484 2.596104,-1.19062 2.67587,-1.19062 0.07977,0 0.14503,1.82066 0.14503,4.04592 v 4.04593 l -1.46107,0.71657 c -0.803588,0.39412 -1.577495,0.71658 -1.719792,0.71658 -0.448558,0 -0.322654,-4.73637 0.138154,-5.19718 0.7803,-0.7803 0.130832,-1.88514 -0.913345,-1.55373 -0.57224,0.18162 -0.765326,1.2899 -0.27728,1.59153 0.14901,0.0921 0.264583,1.36828 0.264583,2.92158 v 2.75805 l -1.314121,0.66591 c -0.722766,0.36626 -1.407376,0.65868 -1.521354,0.64982 -0.113978,-0.009 -0.832311,-0.33113 -1.596296,-0.71618 z m 1.702095,-0.11108 c -0.08446,-0.21107 -0.147157,-0.14837 -0.159852,0.15985 -0.01149,0.27892 0.05105,0.43519 0.138964,0.34727 0.08792,-0.0879 0.09732,-0.31612 0.02089,-0.50712 z m -0.97449,-8.28477 c -0.363803,-0.20796 -0.780521,-0.37812 -0.926042,-0.37812 -0.145521,0 0.03307,0.17016 0.396875,0.37812 0.363802,0.20797 0.780521,0.37813 0.926041,0.37813 0.145521,0 -0.03307,-0.17016 -0.396874,-0.37813 z m 13.670351,8.76434 c -2.144806,-0.60262 -3.462052,-1.9475 -3.660476,-3.73725 l -0.088,-0.79375 1.918229,-0.0777 c 1.774055,-0.0719 1.918229,-0.0376 1.918229,0.45692 0,1.76651 4.72564,2.10552 4.977338,0.35707 0.106386,-0.73901 -0.827803,-1.23317 -3.421602,-1.80992 -2.476344,-0.55063 -4.006699,-1.42086 -4.564015,-2.59532 -1.250961,-2.6362 0.312414,-5.34625 3.461251,-5.99995 3.855799,-0.80046 7.209317,0.75654 7.663979,3.55829 l 0.165635,1.0207 -1.606431,-0.1162 c -1.390173,-0.10056 -1.712635,-0.22989 -2.395362,-0.96075 -0.642868,-0.6882 -0.992934,-0.84456 -1.890798,-0.84456 -1.356083,0 -2.125411,0.38399 -2.125411,1.06085 0,0.66593 0.925643,1.1237 3.662232,1.81111 3.833538,0.96296 4.96333,2.08755 4.744784,4.72292 -0.1431,1.7256 -0.768665,2.64204 -2.34893,3.44111 -1.503743,0.76039 -4.628352,1.00724 -6.410651,0.50647 z m 13.389921,0.12241 c -2.129102,-0.54456 -3.245273,-2.01715 -3.246784,-4.28356 -0.0019,-2.74803 1.321308,-3.92666 5.159521,-4.59598 2.522865,-0.43996 3.470412,-0.99109 3.148084,-1.83106 -0.391266,-1.01963 -2.79281,-1.28255 -3.882874,-0.4251 -0.518205,0.40762 -1.073357,0.52916 -2.416932,0.52916 -0.959313,0 -1.744205,-0.0815 -1.744205,-0.18104 0,-0.0996 0.238136,-0.67298 0.529191,-1.27421 0.349316,-0.7216 0.911394,-1.31207 1.653645,-1.73719 0.980475,-0.56155 1.446303,-0.64246 3.637997,-0.63188 2.931105,0.0142 4.247867,0.50519 5.216258,1.94522 0.55344,0.82298 0.604451,1.19223 0.603099,4.36563 -0.0019,4.17184 -0.268144,5.27982 -1.567288,6.51919 -1.47006,1.40242 -4.866772,2.16938 -7.089712,1.60082 z m 3.895977,-3.43711 c 0.886073,-0.63437 1.314302,-1.53236 1.319016,-2.76596 0.003,-0.77963 -0.08587,-0.98605 -0.376425,-0.87455 -0.20918,0.0803 -0.893789,0.27717 -1.521354,0.43756 -2.65712,0.67908 -3.301444,1.24428 -2.997266,2.6292 0.286266,1.30336 2.141222,1.60097 3.576029,0.57375 z m 16.536459,3.43109 c -3.09248,-0.75286 -4.4752,-2.95839 -4.48941,-7.16093 -0.0142,-4.1898 1.16625,-6.13369 4.27313,-7.03689 3.6759,-1.06861 7.24407,0.47815 8.14588,3.53116 0.17085,0.57837 0.12185,0.59531 -1.72202,0.59531 -1.65871,0 -2.00106,-0.0868 -2.71688,-0.68916 -0.6696,-0.56343 -1.00613,-0.66406 -1.84467,-0.55159 -1.78059,0.23883 -2.56912,1.51294 -2.56912,4.15117 0,1.93366 0.45483,3.1392 1.40235,3.71694 1.17649,0.71735 2.04201,0.64494 3.31521,-0.27736 0.9313,-0.67463 1.337,-0.79375 2.70336,-0.79375 1.54518,0 1.60049,0.0231 1.42398,0.59531 -0.56965,1.84665 -2.09384,3.4275 -3.74739,3.8867 -1.11816,0.31051 -2.97441,0.32523 -4.17442,0.0331 z m 13.82688,-0.11301 c -2.88538,-1.07666 -3.88719,-2.85149 -3.93122,-6.96464 -0.0379,-3.54216 0.81815,-5.51287 2.89215,-6.65785 1.38141,-0.76262 3.7483,-1.01357 5.52953,-0.58627 2.92719,0.70223 4.3057,2.97822 4.30306,7.10462 -0.002,3.70839 -0.7717,5.47545 -2.89389,6.64701 -1.42996,0.78942 -4.39368,1.01906 -5.89963,0.45713 z m 3.95322,-3.5011 c 0.70345,-0.44322 1.13414,-1.86622 1.13613,-3.75376 0.004,-3.41704 -2.21362,-5.11302 -4.27572,-3.27053 -0.70861,0.63315 -0.87365,1.00751 -1.01657,2.30589 -0.45767,4.15804 1.50648,6.38791 4.15616,4.7184 z m -27.79017,3.42054 c -0.09701,-0.097 -0.176389,-3.3117 -0.176389,-7.14375 v -6.96736 h 1.4142 c 2.329884,0 2.289966,-0.13297 2.289966,7.6276 v 6.6599 h -1.675693 c -0.921634,0 -1.755072,-0.0794 -1.852084,-0.17639 z"
         style="fill:#3b3b3b;stroke-width:0.26458332" />
    </g>
  </g>
</svg>
